<?xml version="1.0" encoding="UTF-8" standalone="no"?>
<!-- Created with Inkscape (http://www.inkscape.org/) -->

<svg
   xmlns:dc="http://purl.org/dc/elements/1.1/"
   xmlns:cc="http://creativecommons.org/ns#"
   xmlns:rdf="http://www.w3.org/1999/02/22-rdf-syntax-ns#"
   xmlns:svg="http://www.w3.org/2000/svg"
   xmlns="http://www.w3.org/2000/svg"
   xmlns:sodipodi="http://sodipodi.sourceforge.net/DTD/sodipodi-0.dtd"
   xmlns:inkscape="http://www.inkscape.org/namespaces/inkscape"
   width="354.33069"
   height="212.59842"
   id="svg2"
   version="1.1"
   inkscape:version="0.47 r22583"
   sodipodi:docname="New document 1">
  <defs
     id="defs4">
    <inkscape:perspective
       sodipodi:type="inkscape:persp3d"
       inkscape:vp_x="0 : 526.18109 : 1"
       inkscape:vp_y="0 : 1000 : 0"
       inkscape:vp_z="744.09448 : 526.18109 : 1"
       inkscape:persp3d-origin="372.04724 : 350.78739 : 1"
       id="perspective10" />
    <inkscape:perspective
       id="perspective3704"
       inkscape:persp3d-origin="0.5 : 0.33333333 : 1"
       inkscape:vp_z="1 : 0.5 : 1"
       inkscape:vp_y="0 : 1000 : 0"
       inkscape:vp_x="0 : 0.5 : 1"
       sodipodi:type="inkscape:persp3d" />
    <inkscape:perspective
       id="perspective3731"
       inkscape:persp3d-origin="0.5 : 0.33333333 : 1"
       inkscape:vp_z="1 : 0.5 : 1"
       inkscape:vp_y="0 : 1000 : 0"
       inkscape:vp_x="0 : 0.5 : 1"
       sodipodi:type="inkscape:persp3d" />
  </defs>
  <sodipodi:namedview
     id="base"
     pagecolor="#ffffff"
     bordercolor="#666666"
     borderopacity="1.0"
     inkscape:pageopacity="0.0"
     inkscape:pageshadow="2"
     inkscape:zoom="1"
     inkscape:cx="138.69069"
     inkscape:cy="107.02694"
     inkscape:document-units="px"
     inkscape:current-layer="layer1"
     showgrid="false"
     units="cm"
     inkscape:window-width="1280"
     inkscape:window-height="727"
     inkscape:window-x="0"
     inkscape:window-y="25"
     inkscape:window-maximized="1" />
  <metadata
     id="metadata7">
    <rdf:RDF>
      <cc:Work
         rdf:about="">
        <dc:format>image/svg+xml</dc:format>
        <dc:type
           rdf:resource="http://purl.org/dc/dcmitype/StillImage" />
        <dc:title></dc:title>
      </cc:Work>
    </rdf:RDF>
  </metadata>
  <g
     inkscape:label="Layer 1"
     inkscape:groupmode="layer"
     id="layer1"
     transform="translate(0,-839.76245)">
    <flowRoot
       xml:space="preserve"
       id="flowRoot2816"
       style="font-size:40px;font-style:normal;font-weight:normal;fill:#000000;fill-opacity:1;stroke:none;font-family:Bitstream Vera Sans"
       transform="translate(0,839.76245)"><flowRegion
         id="flowRegion2818"><rect
           id="rect2820"
           width="231.5"
           height="43"
           x="65.5"
           y="19.098419" /></flowRegion><flowPara
         id="flowPara2822">Password</flowPara></flowRoot>    <flowRoot
       xml:space="preserve"
       id="flowRoot2824"
       style="font-size:40px;font-style:normal;font-weight:normal;fill:#000000;fill-opacity:1;stroke:none;font-family:Bitstream Vera Sans"
       transform="translate(-34.5,928.26245)"><flowRegion
         id="flowRegion2826"><rect
           id="rect2828"
           width="327.5"
           height="31.5"
           x="72.5"
           y="45.098419" /></flowRegion><flowPara
         id="flowPara2830"
         style="font-size:22px;font-style:normal;font-variant:normal;font-weight:normal;font-stretch:normal;text-align:start;line-height:125%;writing-mode:lr-tb;text-anchor:start;font-family:Purisa;-inkscape-font-specification:Purisa">Password: noeledmunds</flowPara></flowRoot>    <path
       sodipodi:type="arc"
       style="fill:none;stroke:#000000;stroke-width:1;stroke-miterlimit:4;stroke-opacity:1;stroke-dasharray:none"
       id="path3692"
       sodipodi:cx="189.85817"
       sodipodi:cy="43.953453"
       sodipodi:rx="10.253048"
       sodipodi:ry="12.727922"
       d="m 200.11122,43.953453 a 10.253048,12.727922 0 1 1 -20.5061,0 10.253048,12.727922 0 1 1 20.5061,0 z"
       transform="translate(-0.311923,877.99468)" />
    <path
       sodipodi:type="arc"
       style="fill:none;stroke:#000000;stroke-width:1;stroke-miterlimit:4;stroke-opacity:1;stroke-dasharray:none"
       id="path3694"
       sodipodi:cx="170.23596"
       sodipodi:cy="50.670967"
       sodipodi:rx="2.6516504"
       sodipodi:ry="3.8890872"
       d="m 172.88761,50.670967 a 2.6516504,3.8890872 0 1 1 -5.3033,0 2.6516504,3.8890872 0 1 1 5.3033,0 z"
       transform="translate(20.901281,870.57006)" />
    <path
       sodipodi:type="arc"
       style="fill:none;stroke:#000000;stroke-width:1;stroke-miterlimit:4;stroke-opacity:1;stroke-dasharray:none"
       id="path3692-8"
       sodipodi:cx="189.85817"
       sodipodi:cy="43.953453"
       sodipodi:rx="10.253048"
       sodipodi:ry="12.727922"
       d="m 200.11122,43.953453 a 10.253048,12.727922 0 1 1 -20.5061,0 10.253048,12.727922 0 1 1 20.5061,0 z"
       transform="translate(-32.838834,878.70179)" />
    <path
       sodipodi:type="arc"
       style="fill:none;stroke:#000000;stroke-width:1;stroke-miterlimit:4;stroke-opacity:1;stroke-dasharray:none"
       id="path3694-4"
       sodipodi:cx="170.23596"
       sodipodi:cy="50.670967"
       sodipodi:rx="2.6516504"
       sodipodi:ry="3.8890872"
       d="m 172.88761,50.670967 a 2.6516504,3.8890872 0 1 1 -5.3033,0 2.6516504,3.8890872 0 1 1 5.3033,0 z"
       transform="translate(-11.625634,871.27717)" />
    <path
       style="fill:none;stroke:#000000;stroke-width:1px;stroke-linecap:butt;stroke-linejoin:miter;stroke-opacity:1"
       d="m 154.19091,940.68646 c 4.37677,-0.22675 15.71843,-3.87145 20.15254,-9.19238 l 1.76777,1.41421 c 5.31076,3.22979 12.93826,8.48528 18.73833,8.48528"
       id="path3721" />
    <path
       style="fill:none;stroke:#000000;stroke-width:1.07608914px;stroke-linecap:butt;stroke-linejoin:miter;stroke-opacity:1"
       d="m 154.40573,940.38927 c 4.55887,0.25209 16.72598,1.82909 21.34458,7.74443 l 0.0735,-0.15799 c 5.53172,-3.5906 12.41592,-6.60475 18.45731,-6.60475"
       id="path3721-1"
       sodipodi:nodetypes="cccc" />
    <path
       style="fill:none;stroke:#000000;stroke-width:1px;stroke-linecap:butt;stroke-linejoin:miter;stroke-opacity:1"
       d="m 179.2932,902.85625 c 1.46147,-5.15795 8.5114,-9.60764 9.19239,-9.89949 l -1.41422,0 c -4.51359,2.3017 -8.64899,4.08719 -10.96015,8.13172 l -0.70711,-1.76776 c -3.43842,-6.66593 -14.17058,-9.19239 -16.61701,-9.19239 l 1.41422,0.70711 c 5.52409,1.95333 8.83883,7.72733 8.83883,12.37436"
       id="path3757" />
    <path
       style="fill:none;stroke:#000000;stroke-width:1px;stroke-linecap:butt;stroke-linejoin:miter;stroke-opacity:1"
       d="m 177.17188,899.32072 c 0,-4.99259 1.09278,-8.99637 3.53553,-13.43503 l 0.70711,-2.12132 c -3.54253,2.0243 -7.97057,3.87483 -10.6066,8.13173 l -0.70711,1.76776 c 0,0.11785 0,0.23571 0,0.35356"
       id="path3759" />
    <path
       style="fill:none;stroke:#000000;stroke-width:1px;stroke-linecap:butt;stroke-linejoin:miter;stroke-opacity:1"
       d="m 159.51198,902.08848 c 1.24773,-2.19186 4.40864,-5.39578 6.34619,-7.0104"
       id="path3761"
       sodipodi:nodetypes="cc" />
    <path
       style="fill:none;stroke:#000000;stroke-width:1px;stroke-linecap:butt;stroke-linejoin:miter;stroke-opacity:1"
       d="m 163.07264,897.84584 c 0.15221,-1.66826 -7.69864,-3.8634 -10.29594,-3.12132 l 1.76776,0.70711 c 3.13066,1.13183 4.31986,3.67067 5.65686,6.01041"
       id="path3763"
       sodipodi:nodetypes="cccc" />
    <path
       style="fill:none;stroke:#000000;stroke-width:1px;stroke-linecap:butt;stroke-linejoin:miter;stroke-opacity:1"
       d="m 184.95005,893.29254 c -0.21371,-0.26006 2.07907,-7.15614 2.82843,-8.46751 l -1.76777,1.76777 c -3.3139,4.48487 -3.17809,3.87355 -4.59619,9.54594"
       id="path3765"
       sodipodi:nodetypes="cccc" />
    <path
       style="fill:none;stroke:#000000;stroke-width:1px;stroke-linecap:butt;stroke-linejoin:miter;stroke-opacity:1"
       d="m 186.01071,895.43163 c -0.17726,-1.61601 7.21575,-1.65525 10.25305,-0.35355"
       id="path3767" />
    <path
       style="fill:#000000;stroke:#000000;stroke-width:1.25399995;stroke-miterlimit:4;stroke-opacity:1;stroke-dasharray:none"
       d="m 189.89155,923.39389 c -0.73534,-1.12227 -0.73534,-3.13656 0,-4.25884 1.19116,-1.81793 3.03241,-0.52497 3.03241,2.12942 0,2.6544 -1.84125,3.94736 -3.03241,2.12942 z"
       id="path3787" />
    <path
       style="fill:#000000;stroke:#000000;stroke-width:1.14300001;stroke-miterlimit:4;stroke-opacity:1;stroke-dasharray:none"
       d="m 157.36464,924.101 c -0.73535,-1.12227 -0.73535,-3.13657 0,-4.25884 1.19115,-1.81794 3.0324,-0.52497 3.0324,2.12942 0,2.65439 -1.84125,3.94736 -3.0324,2.12942 z"
       id="path3789" />
    <path
       style="fill:none;stroke:#000000;stroke-width:1px;stroke-linecap:butt;stroke-linejoin:miter;stroke-opacity:1"
       d="m 183.53584,903.56336 c 2.07789,-3.63632 5.69682,-6.46328 10.96016,-7.77818 l -0.43934,0.33579 c 0.4311,0.0792 1.68039,-1.4304 1,-0.75"
       id="path3791"
       sodipodi:nodetypes="cccc" />
    <path
       style="fill:none;stroke:#000000;stroke-width:1px;stroke-linecap:butt;stroke-linejoin:miter;stroke-opacity:1"
       d="m 155.5,940.36087 c 13.46978,-2.68726 15.45268,2.75 19.5,2.75 5.44386,0 13.47797,-4.01836 17.5,-1.5"
       id="path3795"
       sodipodi:nodetypes="csc" />
    <path
       style="fill:none;stroke:#000000;stroke-width:1px;stroke-linecap:butt;stroke-linejoin:miter;stroke-opacity:1"
       d="m 160.25,901.61087 c -26.48515,7.75324 -14.52855,36.9429 -5.5,55"
       id="path3799"
       sodipodi:nodetypes="cc" />
    <path
       style="fill:none;stroke:#000000;stroke-width:1px;stroke-linecap:butt;stroke-linejoin:miter;stroke-opacity:1"
       d="m 184.25,902.11087 c 29.42411,11.21533 16.29688,32.53437 2.75,51.5"
       id="path3801"
       sodipodi:nodetypes="cc" />
  </g>
</svg>
